<svg xmlns="http://www.w3.org/2000/svg" viewBox="0 0 167.38 165.84"><defs><style>.cls-1{isolation:isolate;}.cls-2{fill:#f46c6c;}.cls-12,.cls-15,.cls-3{fill:#bdbdbd;}.cls-3{opacity:0.5;}.cls-12,.cls-3{mix-blend-mode:multiply;}.cls-4{fill:#424242;}.cls-5{fill:#353535;}.cls-6{fill:#f5f5f5;}.cls-7{fill:#e0e0e0;}.cls-8{fill:#f8d8b2;}.cls-9{fill:#f7c797;}.cls-10{fill:#4fc3f7;}.cls-11{fill:#fafafa;}.cls-12{opacity:0.3;}.cls-13{fill:#d3d3d3;}.cls-14{fill:#eee;}.cls-16{fill:#757575;}.cls-17{fill:#66bb6a;}.cls-18{fill:none;}.cls-19{fill:#f9ebd9;}</style></defs><title>Asset 7</title><g class="cls-1"><g id="Layer_2" data-name="Layer 2"><g id="background"><path class="cls-2" d="M167.38,82.92c0,45.8-37.47,82.92-83.69,82.92S0,128.72,0,82.92,37.47,0,83.69,0,167.38,37.13,167.38,82.92Z"/><path class="cls-3" d="M141,106.75l-1.26,1.09-1.6-2h0a18.43,18.43,0,0,0-.73-3.06v0l-.23-.66,0,0c-.05-.14-.1-.27-.16-.41a3.65,3.65,0,0,0-.14-.35l0-.11,0,0a17,17,0,0,0-1.4-2.59l0-.06-.26-.39-.14-.19a2,2,0,0,0-.17-.23c-.08-.12-.17-.24-.26-.35l0,0h0l-.17-.22L124,84.26l-1-1.21-1.61-2-.07-.08v0l-.12-.13a2.91,2.91,0,0,0-1.91-1,2.81,2.81,0,0,0-.82.06l-.16,0h0l-.08,0L118,80h-.07a2.8,2.8,0,0,0-.61.33,2.6,2.6,0,0,0-.36.3V39.85a2,2,0,0,0-1.94-2H97.63v-.61a.64.64,0,0,0-.63-.65H91.58v-1a3.38,3.38,0,0,0-3.32-3.44h0a3.38,3.38,0,0,0-3.32,3.44v1H79.52a.64.64,0,0,0-.62.65v.61H61.51a2,2,0,0,0-1.95,2V84.52l-.81-2.67a3,3,0,0,0-4-2.06A3.22,3.22,0,0,0,53,83.64L57.1,101.4l0,.08h0l.06.2,1.56,5.24h0l-1.81,1.79-1.13-1.23L50.6,112.6l-1.25-1.36-18,17.86H69l3.49-3.46-1.13-1.23,1.8-1.79h0a17.28,17.28,0,0,0,1.7-.49h0l.17-.07h.05l.2-.07,0,0c.47-.18.93-.38,1.38-.59l0,0,.39-.19h0l.4-.22q.32-.16.63-.36c.31-.19.62-.39.92-.6l.27-.19.14-.11.26-.19.16-.13.27-.22.22-.19.17-.15.21-.19.34-.31.22-.21L83.47,116H106.4l-4.61,1.13.49-.09L98,118.16a3.11,3.11,0,0,0-2.24,4,3,3,0,0,0,3,2.14h0a2.48,2.48,0,0,0,.54-.06l.41-.08,17-3,5.34-1.32h0l1.61,2-1.26,1.1,4.6,5.7-.6.52h14.85v-22ZM88.26,35.39a.81.81,0,1,1,.78-.81A.79.79,0,0,1,88.26,35.39Zm29.32,52.36L117,87V85.24L118.41,87Z"/><polygon class="cls-4" points="62.62 125.96 53.38 115.91 44.65 106.42 44.65 106.42 43.39 105.06 23.32 124.93 23.32 129.1 48.93 129.1 57.6 120.51 62.62 125.96"/><polygon class="cls-5" points="62.62 125.96 57.6 120.51 48.93 129.1 59.45 129.1 62.62 125.96"/><polygon class="cls-6" points="66.55 119.46 65.41 118.23 65.41 118.23 66.55 119.46"/><polygon class="cls-6" points="53.38 115.91 58.88 121.89 64.06 116.76 58.19 110.37 49.84 101.29 44.65 106.42 44.65 106.42 53.38 115.91"/><polygon class="cls-7" points="65.41 118.23 65.41 118.23 65.41 118.23 64.06 116.76 58.88 121.89 58.88 121.89 61.36 124.59 66.55 119.46 65.41 118.23 65.41 118.23"/><path class="cls-8" d="M65.41,118.23h0l-1-1.09.76-.75a1.41,1.41,0,0,1,2,0l-14.44-15.7h0L51,102.52l7.22,7.85,5.87,6.39Z"/><path class="cls-9" d="M67.22,116.44a1.41,1.41,0,0,0-2,0l-.76.75,1,1.09h0l1.81-1.79Z"/><path class="cls-8" d="M70.38,115.38l0,0-.41.18h0l-.57.23-.19.07c.55-.2,1.09-.43,1.61-.68l-.12.06Z"/><polygon class="cls-8" points="51.16 95.31 51.22 95.5 51.16 95.3 51.16 95.31"/><path class="cls-8" d="M59,88.14h0Z"/><path class="cls-8" d="M55.64,85.08l0,.07Z"/><path class="cls-8" d="M55.72,85.29a.36.36,0,0,0,0,.09A.36.36,0,0,1,55.72,85.29Z"/><path class="cls-8" d="M59.13,88.13h0Z"/><path class="cls-8" d="M58.7,88.12h0Z"/><path class="cls-8" d="M71.21,115l-.39.19Z"/><path class="cls-8" d="M74.67,112.62l-.18.15C74.55,112.73,74.61,112.67,74.67,112.62Z"/><path class="cls-8" d="M58.47,88.08l.12,0Z"/><path class="cls-8" d="M55.91,85.72l0,.09Z"/><path class="cls-8" d="M68.93,116c-.25.08-.51.17-.77.24s-.62.17-.93.25h0a17.81,17.81,0,0,0,1.89-.56l-.18.07Z"/><path class="cls-8" d="M55.81,85.51l0,.09Z"/><path class="cls-8" d="M58.22,88l.17,0Z"/><path class="cls-8" d="M57.22,87.41l-.08-.07,0,0Z"/><path class="cls-8" d="M56.89,87.1h0Z"/><path class="cls-8" d="M56.74,86.94l-.05-.06v0Z"/><path class="cls-8" d="M55.57,86.3l-1.45-6.25L52.8,75.67a3,3,0,0,0-4-2.06,3.22,3.22,0,0,0-1.76,3.85l4.08,17.76-.85-3.7Z"/><path class="cls-8" d="M57.05,87.25,57,87.19l0,0Z"/><path class="cls-8" d="M56.57,86.75l0-.07,0,0Z"/><path class="cls-8" d="M59.34,88.12h0Z"/><path class="cls-8" d="M57.73,87.79l.08,0h0a1.53,1.53,0,0,0,.37.16,2.35,2.35,0,0,1-.53-.25l0,0Z"/><polygon class="cls-8" points="57.4 87.56 57.39 87.55 57.4 87.55 57.4 87.56"/><path class="cls-9" d="M57.49,87.62l-.09-.06h0Z"/><path class="cls-9" d="M56.35,86.46l0,0Z"/><path class="cls-9" d="M56,85.88a.25.25,0,0,0,0-.07l0-.09-.06-.12,0-.09a.69.69,0,0,1-.05-.13.36.36,0,0,1,0-.09.58.58,0,0,1,0-.14l0-.07c0-.08,0-.15-.07-.23L54,79.54l.12.51,1.45,6.25Z"/><path class="cls-9" d="M57.81,87.84l-.08,0Z"/><path class="cls-9" d="M56.79,87l0-.06,0,0Z"/><path class="cls-9" d="M57.27,87.45l-.05,0,0,0Z"/><path class="cls-9" d="M57,87.21l0,0-.08-.09h0Z"/><path class="cls-9" d="M56.54,86.72l0,0,0,0Z"/><path class="cls-8" d="M73.44,113.61l-.26.19Z"/><path class="cls-8" d="M73.84,113.31l-.25.19Z"/><path class="cls-8" d="M67.22,116.44h0c.31-.08.63-.15.93-.25s.52-.16.77-.24h0l.18-.07h0l.19-.07.57-.23a16.15,16.15,0,0,1-1.77.62l16.06-15.9L68.45,83.16l-1.6-1.74-6.11,6.06-2,1.92a1.6,1.6,0,0,1-2.69-.81l-.53-2.29.42-.42h0l-.42.42L50.3,91.52l.85,3.7v.08h0l.06.2,1.56,5.24h0Z"/><path class="cls-8" d="M74,113.18l.27-.22Z"/><path class="cls-8" d="M71.63,114.76l-.4.22.4-.22c.21-.11.42-.23.62-.36C72.05,114.53,71.84,114.65,71.63,114.76Z"/><path class="cls-8" d="M70.38,115.38l.28-.12Z"/><path class="cls-8" d="M69.94,115.58l.41-.18Z"/><path class="cls-8" d="M75.22,112.12l-.34.31.34-.31.22-.21,10.18-10.08h0Z"/><path class="cls-8" d="M60.74,87.48a2.44,2.44,0,0,1-1.39.63H58.7l-.11,0-.12,0h-.08l-.17,0h0a1.53,1.53,0,0,1-.37-.16A2.38,2.38,0,0,0,60.74,87.48Z"/><path class="cls-9" d="M75.22,112.12l10.4-10.3h0l-1.4-1.52h0L68.16,116.2a16.15,16.15,0,0,0,1.77-.62h0l.41-.18,0,0,.28-.12.12-.06,0,0,.39-.19h0l.4-.22c.21-.11.42-.23.62-.36s.63-.39.93-.6l.26-.19.15-.11.25-.19.17-.13.27-.22.21-.19.18-.15.21-.19Z"/><path class="cls-9" d="M55.57,86.3l.53,2.29a1.6,1.6,0,0,0,2.69.81l2-1.92a2.38,2.38,0,0,1-2.9.37h0l-.08,0h0l0,0-.19-.14-.09-.07h0l-.12-.1-.1-.08,0,0-.09-.09-.06,0-.1-.11h0L56.79,87l-.09-.1v0l-.12-.13,0,0,0-.06-.15-.2,0,0a5.84,5.84,0,0,1-.33-.53Z"/><path class="cls-10" d="M109.06,31.65H55.55a2,2,0,0,0-1.94,2v74.16a2,2,0,0,0,1.94,2h53.51a2,2,0,0,0,2-2V33.67A2,2,0,0,0,109.06,31.65Z"/><polygon class="cls-11" points="108.85 34.03 108.85 90.7 95.64 104.41 55.76 104.41 55.76 34.03 108.85 34.03"/><path class="cls-7" d="M91.05,30.39H73.57a.64.64,0,0,0-.63.65v4.57a.64.64,0,0,0,.63.65H91.05a.64.64,0,0,0,.62-.65V31A.64.64,0,0,0,91.05,30.39Z"/><path class="cls-7" d="M82.31,25.93h0A3.38,3.38,0,0,0,79,29.37v1.5h6.63v-1.5A3.38,3.38,0,0,0,82.31,25.93Zm0,3.28a.81.81,0,1,1,.78-.81A.79.79,0,0,1,82.31,29.21Z"/><rect class="cls-12" x="78.99" y="29.81" width="6.64" height="0.58"/><path class="cls-13" d="M90,31.14H74.71a.39.39,0,0,0,0,.78H90a.39.39,0,0,0,0-.78Z"/><path class="cls-13" d="M90,32.43H74.71a.39.39,0,0,0,0,.77H90a.39.39,0,0,0,0-.77Z"/><path class="cls-13" d="M90,33.71H74.71a.38.38,0,0,0-.37.39.37.37,0,0,0,.37.38H90a.38.38,0,0,0,.37-.38A.39.39,0,0,0,90,33.71Z"/><polygon class="cls-14" points="95.64 104.41 108.85 90.7 95.64 90.7 95.64 104.41"/><polygon class="cls-12" points="95.64 104.41 105.91 101.36 108.85 90.7 95.64 104.41"/><rect class="cls-15" x="73.53" y="44.7" width="30.18" height="2.32"/><rect class="cls-16" x="67.24" y="39.44" width="30.18" height="2.32"/><rect class="cls-15" x="73.53" y="48.85" width="30.18" height="2.32"/><rect class="cls-15" x="73.53" y="52.99" width="30.18" height="2.32"/><rect class="cls-15" x="73.53" y="61.94" width="30.18" height="2.32"/><rect class="cls-15" x="73.53" y="66.09" width="30.18" height="2.32"/><rect class="cls-15" x="73.53" y="70.23" width="30.18" height="2.32"/><rect class="cls-15" x="73.53" y="79.18" width="30.18" height="2.32"/><rect class="cls-15" x="73.53" y="83.33" width="30.18" height="2.32"/><rect class="cls-15" x="73.53" y="87.47" width="30.18" height="2.32"/><path class="cls-12" d="M91.67,35.25v.36a.64.64,0,0,1-.62.65H73.57a.64.64,0,0,1-.63-.65v-.36Z"/><polygon class="cls-12" points="91.67 35.61 93.37 31.65 91.67 31.65 91.67 35.61"/><path class="cls-7" d="M60.91,44.7V55.31H71.13V44.7Zm8.41,8.74H62.71V46.57h6.61Z"/><path class="cls-7" d="M60.91,61.94V72.55H71.13V61.94Zm8.41,8.74H62.71V63.81h6.61Z"/><path class="cls-7" d="M60.91,79.18V89.79H71.13V79.18Zm8.41,8.74H62.71V81.06h6.61Z"/><polygon class="cls-17" points="65.31 52.74 62.08 48.17 63.74 46.91 65.65 49.6 71.09 44.7 72.45 46.32 65.31 52.74"/><polygon class="cls-17" points="65.31 69.98 62.08 65.42 63.74 64.15 65.65 66.84 71.09 61.94 72.45 63.56 65.31 69.98"/><polygon class="cls-17" points="65.31 87.22 62.08 82.66 63.74 81.39 65.65 84.08 71.09 79.18 72.45 80.8 65.31 87.22"/><polygon class="cls-18" points="133.04 112.01 139.29 106.58 138.68 107.11 133.04 112.01"/><polygon class="cls-4" points="141.04 105.06 139.64 106.28 139.64 106.28 141.04 105.06"/><polygon class="cls-4" points="141.29 117.11 135.47 109.9 139.54 106.36 139.29 106.58 133.04 112.01 121.09 122.4 121.09 122.4 119.69 123.61 124.12 129.1 141.29 129.1 141.29 117.11"/><polygon class="cls-5" points="139.64 106.28 139.54 106.36 135.47 109.9 141.29 117.11 141.29 105.37 141.04 105.06 139.64 106.28 139.64 106.28"/><polygon class="cls-6" points="135.03 100.58 139.64 106.28 139.65 106.28 135.04 100.57 133.78 101.67 133.78 101.67 135.03 100.58"/><path class="cls-6" d="M133,112l5.64-4.9-1.8,1.57-1.6-2a1.32,1.32,0,0,1-1.13-.5,1.44,1.44,0,0,1-.28-1.24l-1.59-2L117.74,115.6h0l-1.26,1.1,4.61,5.7h0Z"/><path class="cls-7" d="M133.79,101.67h0L132.28,103l1.59,2a1.42,1.42,0,0,1,.44-.73,1.32,1.32,0,0,1,1.91.17,1.45,1.45,0,0,1-.17,2,1.31,1.31,0,0,1-.77.32l1.6,2,1.8-1.57.61-.53.25-.21.1-.09h0l-4.61-5.7Z"/><path class="cls-15" d="M136.22,104.4a1.32,1.32,0,0,0-1.91-.17,1.42,1.42,0,0,0-.44.73,1.44,1.44,0,0,0,.28,1.24,1.32,1.32,0,0,0,1.9.18A1.45,1.45,0,0,0,136.22,104.4Z"/><path class="cls-8" d="M132.28,103l1.51-1.31-1.12,1-.67-.83a1.55,1.55,0,0,1,.18-2.12l-5.3,4.61-10.74,9.33,1.6,2h0Z"/><path class="cls-9" d="M132,101.8l.67.83,1.12-1h0l-1.61-2h0A1.55,1.55,0,0,0,132,101.8Z"/><path class="cls-8" d="M102.86,108.84l.09-.07Z"/><path class="cls-8" d="M100.42,80.72h0Z"/><path class="cls-8" d="M99.82,80.76h0Z"/><path class="cls-8" d="M99.49,80.84l.07,0Z"/><path class="cls-8" d="M102.49,109.09l.09,0Z"/><path class="cls-8" d="M103,108.7l.09-.07Z"/><path class="cls-8" d="M103.38,108.4l.08-.08Z"/><path class="cls-8" d="M100.13,80.73h0Z"/><path class="cls-8" d="M103.21,108.55l.08-.07Z"/><path class="cls-8" d="M102.68,109l.09-.06Z"/><path class="cls-8" d="M101.26,109.64l.07,0Z"/><path class="cls-8" d="M103.61,108.15l-.07.09Z"/><path class="cls-8" d="M103.69,108.07l.07-.09Z"/><path class="cls-8" d="M103.84,107.89l.07-.09Z"/><path class="cls-8" d="M101.69,109.5l.09,0Z"/><path class="cls-8" d="M102.3,109.21l.09,0Z"/><path class="cls-8" d="M102.1,109.31l.09,0Z"/><path class="cls-8" d="M101.9,109.41l.09,0Z"/><path class="cls-8" d="M101.48,109.57s0,0,.08,0S101.51,109.57,101.48,109.57Z"/><path class="cls-8" d="M101,80.79l.15,0Z"/><path class="cls-8" d="M101.27,80.88l.1,0Z"/><path class="cls-8" d="M129,91.73l.13.19Z"/><path class="cls-8" d="M112.49,73.73l-.15,0h.07Z"/><path class="cls-8" d="M101.58,81l.06,0Z"/><path class="cls-8" d="M128.55,91.15l.27.35Z"/><path class="cls-8" d="M101.88,81.17l0,0Z"/><path class="cls-8" d="M128.35,90.89,118,78.08l-1-1.21-1.61-2-.07-.08,13.16,16.32Z"/><path class="cls-8" d="M112.23,73.79l.07,0-.3.09h0A.74.74,0,0,1,112.23,73.79Z"/><path class="cls-8" d="M100.62,80.74l.21,0Z"/><path class="cls-8" d="M130.89,95.12l-.06-.16,0,.05S130.88,95.08,130.89,95.12Z"/><path class="cls-8" d="M129.39,92.31l0,.06Z"/><path class="cls-8" d="M131,95.47c.05.14.11.27.16.41C131.15,95.74,131.09,95.61,131,95.47Z"/><path class="cls-8" d="M132.18,99.68h0a18.55,18.55,0,0,0-1-3.76,18.83,18.83,0,0,1,.8,2.78L112,73.87h0a2.59,2.59,0,0,0-.61.33,3.17,3.17,0,0,0-.61,4.55l1.69,2.1-.83.72-1.55,1.36-5.68-7a2.8,2.8,0,0,0-.61.33,3.17,3.17,0,0,0-.6,4.55l3,3.75-.83.72h0l-1.56,1.36-4.57-5.67.1,0a2.86,2.86,0,0,0-1.15.76,3.29,3.29,0,0,0-.08,4.27l3.51,4.35-.83.72L89.06,76.45l0,0L100.79,91l-1.56,1.35L89,79.71a1.74,1.74,0,0,1-.53.9,1.58,1.58,0,0,1-2.28-.21l-.75-.93a1.72,1.72,0,0,1,.2-2.36,1.6,1.6,0,0,1,.95-.39l-1-1.27.17-.06a2.48,2.48,0,0,0-.78.39,3.17,3.17,0,0,0-.61,4.55L96.2,95l1,1.21,6.7,8.31a2.81,2.81,0,0,1,.08,3.23.1.1,0,0,0,0,0,2.64,2.64,0,0,0-.09-3.15l1.72,2.14a1.7,1.7,0,0,1-1,2.74l-8.34,1.49L92,112a3.11,3.11,0,0,0-2.24,4,3.06,3.06,0,0,0,3,2.14,1.7,1.7,0,0,1-.53-.91,1.67,1.67,0,0,1,1.19-2l1.14-.28a1.6,1.6,0,0,1,1.94,1.25,1.73,1.73,0,0,1-.24,1.34l-2.55.47,17-3,5.33-1.32,10.74-9.33,5.3-4.61Z"/><path class="cls-9" d="M132,98.7a18.83,18.83,0,0,0-.8-2.78v0c0-.14-.11-.27-.16-.41l-.15-.35s0-.07,0-.11l0-.05a19.6,19.6,0,0,0-1.4-2.59l0-.06-.27-.39-.13-.19c-.06-.08-.11-.16-.17-.23l-.27-.35v0l0,0L115.36,74.79l0,0-.11-.13a2.87,2.87,0,0,0-1.91-1,2.57,2.57,0,0,0-.83,0l-.08,0h-.11l-.07,0a.74.74,0,0,0-.21.07h0Z"/><path class="cls-9" d="M111.62,81.57l-3.86-4.78a2.94,2.94,0,0,0-2-1.1,2.7,2.7,0,0,0-1.34.2h0l5.68,7Z"/><path class="cls-9" d="M103.81,86.6l1.56-1.36h0l-2.75-3.41a2.91,2.91,0,0,0-.72-.64l0,0-.24-.13-.06,0-.21-.09-.1,0-.17,0-.15,0-.12,0-.21,0h-.49a1.24,1.24,0,0,0-.27,0h0l-.26.06-.07,0-.15,0-.1,0Z"/><path class="cls-9" d="M86.63,76.72a1.56,1.56,0,0,1,1.33.6l.75.92A1.75,1.75,0,0,1,89,79.71L99.23,92.34,100.79,91,89,76.41,89,76.35a2.92,2.92,0,0,0-2-1.1,2.75,2.75,0,0,0-1.17.14l-.17.06Z"/><path class="cls-19" d="M96.58,116.14a1.6,1.6,0,0,0-1.94-1.25l-1.14.28a1.67,1.67,0,0,0-1.19,2,1.7,1.7,0,0,0,.53.91h0a2.48,2.48,0,0,0,.54-.06l.4-.08,2.55-.47A1.73,1.73,0,0,0,96.58,116.14Z"/><path class="cls-9" d="M105.63,106.66l-1.72-2.14a2.64,2.64,0,0,1,.09,3.15.1.1,0,0,1,0,0l0,.08-.07.09-.08.09-.07.09a.3.3,0,0,1-.08.08l-.07.09-.08.08-.08.08-.09.08-.08.07-.08.08-.09.07-.09.07-.09.07-.09.07-.09.06-.1.07-.09,0-.1.07-.09,0-.11.06-.09,0-.11.06-.09,0-.12,0-.09,0-.13,0s0,0-.08,0l-.15.05-.07,0-.21.06L95.84,111l.49-.09,8.34-1.49A1.7,1.7,0,0,0,105.63,106.66Z"/><path class="cls-19" d="M88.71,78.24,88,77.32a1.56,1.56,0,0,0-1.33-.6,1.6,1.6,0,0,0-.95.39,1.72,1.72,0,0,0-.2,2.36l.75.93a1.58,1.58,0,0,0,2.28.21,1.74,1.74,0,0,0,.2-2.37Z"/></g></g></g></svg>